<?xml version="1.0" encoding="UTF-8"?>
<svg id="Layer_2" data-name="Layer 2" xmlns="http://www.w3.org/2000/svg" viewBox="0 0 124.09 124.11">
  <defs>
    <style>
      .cls-1 {
        fill: #f23b3b;
        stroke-width: 0px;
      }
    </style>
  </defs>
  <path class="cls-1" d="M23.46,34.37l-8.01-8c-16.14,21.01-16.12,50.43.03,71.42l8.98-8.99c-11.93-16.38-12.33-38.36-1.01-54.44Z"/>
  <path class="cls-1" d="M97.78,108.61l-8.01-8c-16.07,11.34-38.05,10.96-54.44-.95l-8.98,8.99c21.01,16.13,50.43,16.11,71.42-.04Z"/>
  <path class="cls-1" d="M26.31,15.5l8.01,8c16.07-11.34,38.05-10.96,54.44.95l8.98-8.99C76.73-.68,47.31-.66,26.31,15.5Z"/>
  <path class="cls-1" d="M100.63,89.74l8.01,8c16.14-21.01,16.12-50.43-.03-71.42l-8.98,8.99c11.93,16.38,12.33,38.36,1.01,54.44Z"/>
</svg>